<svg width="393" height="226" viewBox="0 0 393 226" fill="none" xmlns="http://www.w3.org/2000/svg">
<g clip-path="url(#clip0_238_212)">
<path d="M247 17C247 12.0375 251.037 8 256 8C260.963 8 265 12.0375 265 17C265 21.9625 260.963 26 256 26C251.037 26 247 21.9625 247 17ZM393 56V56.1075C393 61.01 389.011 65 384.108 65C381.35 65 378.795 63.7538 377.099 61.58C375.401 59.4063 374.813 56.6262 375.481 53.9512L376.405 50.2562C376.755 48.8562 376.635 47.3538 376.066 46.0275C375.02 43.5863 372.631 42.0075 369.976 42C366.604 42.0063 363.435 43.3225 361.05 45.7075C361.032 45.725 361.016 45.7425 361 45.7588V112H369V114H361V226H335V224H343V114H321V178H295V176H303V129C303 120.729 296.271 114 288 114C279.729 114 273 120.729 273 129V178H233V210C233 217.72 239.28 224 247 224H249.96C252.621 224 255.019 222.419 256.068 219.973C256.636 218.646 256.756 217.144 256.406 215.744L255.482 212.049C254.814 209.374 255.404 206.592 257.1 204.42C258.796 202.246 261.351 201 264.109 201C269.011 201 273.001 204.989 273.001 209.893V210C273.001 218.823 265.824 226 257.001 226H246.001C237.721 226 229.936 222.775 224.081 216.92C218.226 211.065 215.001 203.28 215.001 195V178H187.001V176H198.559L182.001 131.848L165.444 176H173.001V178H139.001V176H147.309L148.934 171.666L134.001 131.848L117.444 176H125.001V178H91.0013V176H99.3087L122.559 114H108.695L66.695 226H61.3088L61.065 225.351L54.9338 209L19.3075 114H0V112H19.3075L54.9325 17L61.0638 0.64875L61.3075 0H66.6937L108.694 112H117.08C113.43 109.695 111 105.626 111 101V50H104V48H111V24H129V48H144V50H129V101C129 107.065 133.935 112 140 112C145.58 112 150.202 107.824 150.906 102.434C145.79 96.4637 143 88.9462 143 81V79C143 70.185 146.432 61.8988 152.665 55.665C158.897 49.4325 167.185 46 176 46V48C167.729 48 161 54.7288 161 63V80H191V63C191 54.7288 184.271 48 176 48V46C184.815 46 193.101 49.4325 199.335 55.665C205.568 61.8975 209 70.185 209 79V82H161V97C161 105.271 167.729 112 176 112C176.119 112 176.236 111.997 176.355 111.996C176.544 111.991 176.738 111.983 176.939 111.97L178 111.905V111.935C185.528 111.459 192.539 108.301 197.92 102.92C201.839 99.0012 204.577 94.2175 205.961 89H208.029C206.602 94.755 203.635 100.034 199.335 104.335C193.576 110.094 186.062 113.46 178 113.939V113.952L177.431 113.97L183.068 129L200.693 176H215V114H207V112H215V2H207V0H233V112H247V50H239V48H265V112H288C294.486 112 300.135 115.652 303 121.007V113.984C294.56 113.734 286.663 110.331 280.665 104.335C274.433 98.1025 271 89.815 271 81V79C271 70.185 274.433 61.8988 280.665 55.665C286.898 49.4325 295.185 46 304 46C312.815 46 321.101 49.4325 327.335 55.665C333.567 61.8975 337 70.185 337 79V82H289V97C289 105.271 295.729 112 304 112C304.102 112 304.204 111.997 304.305 111.996C304.51 111.991 304.719 111.984 304.938 111.97L305.999 111.905V111.935C313.526 111.459 320.538 108.301 325.919 102.92C329.838 99.0012 332.576 94.2175 333.96 89H336.027C334.601 94.755 331.634 100.034 327.334 104.335C323.885 107.784 319.806 110.374 315.358 112H342.999V42H334.999V40H360.999V43.0863C363.55 41.0938 366.671 40.0088 369.959 40H376.999C385.821 40 392.999 47.1775 392.999 56H393ZM289 80H319V63C319 54.7288 312.271 48 304 48C295.729 48 289 54.7288 289 63V80ZM39.4425 64H72.5563L55.9987 19.8475L39.4412 64H39.4425ZM72.5563 162H39.4425L56 206.152L72.5575 162H72.5563ZM71.9987 114V112H90.5563L73.3063 66H38.6925L21.4425 112H40V114H21.4425L38.6925 160H73.3063L90.5563 114H71.9987ZM170.714 113.579C163.907 112.49 157.632 109.302 152.665 104.334C152.639 104.307 152.614 104.28 152.587 104.254C151.139 109.853 146.045 113.999 140 113.999H129.443L135.068 128.999L150 168.818L170.715 113.577L170.714 113.579ZM264.194 114H232.999V176H254.999V129.25C254.999 122.646 258.73 116.898 264.194 114Z" fill="white"/>
</g>
<defs>
<clipPath id="clip0_238_212">
<rect width="393" height="226" fill="white"/>
</clipPath>
</defs>
</svg>
