<svg width="228" height="36" viewBox="0 0 228 36" fill="none" xmlns="http://www.w3.org/2000/svg">
<g clip-path="url(#clip0_243_12721)">
<path d="M225.474 35.3684V0H217.263V0.631579H219.789V35.3684H215.368V15.1579H207.158V15.7895H209.684V30.6316C209.684 33.2436 207.559 35.3684 204.947 35.3684C202.335 35.3684 200.211 33.2436 200.211 30.6316V15.1579H187.579V5.05263C187.579 2.61474 189.562 0.631579 192 0.631579H192.934C193.775 0.631579 194.532 1.13092 194.863 1.90342C195.043 2.32224 195.081 2.79671 194.97 3.23882L194.678 4.40566C194.467 5.25039 194.653 6.12868 195.189 6.81474C195.725 7.50118 196.532 7.89474 197.402 7.89474C198.951 7.89474 200.211 6.63513 200.211 5.08658V5.05263C200.211 2.26658 197.944 0 195.158 0H191.684C189.069 0 186.611 1.01842 184.762 2.86737C182.913 4.71632 181.895 7.17474 181.895 9.78947V15.1579H173.053V15.7895H179.229L174 29.7324L168.771 15.7895H171.158V15.1579H160.421V15.7895H163.044L163.558 17.158L158.842 29.7324L153.613 15.7895H156V15.1579H145.263V15.7895H147.887L155.229 35.3684H150.851L137.664 0.204868L137.587 0H135.886L133.873 5.36842L122.623 35.3684H118.736V36H126.947V35.3684H123.297L128.745 20.8421H139.675L145.123 35.3684H141.473V36H157.165L159.178 30.6316L163.894 18.0572L170.623 36H172.324L174.337 30.6316L179.902 15.7895H181.894V35.3684H179.368V36H190.105V35.3684H187.579V15.7895H194.526V30.6316C194.526 33.5917 196.934 36 199.894 36H204.947C206.995 36 208.779 34.8466 209.684 33.1555V36H228V35.3684H225.473H225.474ZM128.982 20.2105L134.211 6.26763L139.439 20.2105H128.982H128.982Z" fill="white"/>
<path d="M78.6316 8.21053C80.2012 8.21053 81.4737 6.93807 81.4737 5.36842C81.4737 3.79877 80.2012 2.52632 78.6316 2.52632C77.0619 2.52632 75.7895 3.79877 75.7895 5.36842C75.7895 6.93807 77.0619 8.21053 78.6316 8.21053Z" fill="white"/>
<path d="M63.4828 28.1053H62.8299C62.3929 29.7529 61.528 31.2636 60.2905 32.5011C58.5912 34.2004 56.3771 35.1975 54 35.3479V35.3384L53.6649 35.3589C53.5958 35.3633 53.5299 35.3661 53.4651 35.3672C53.4332 35.3672 53.4008 35.3684 53.3688 35.3684C50.7568 35.3684 48.632 33.2436 48.632 30.6316V25.8947H63.7899V24.9474C63.7899 22.1637 62.7059 19.547 60.7378 17.5784C58.7696 15.6103 56.1525 14.5263 53.3688 14.5263V14.8421V15.1579C55.9808 15.1579 58.1057 17.2828 58.1057 19.8947V25.2632H48.632V19.8947C48.632 17.2828 50.7568 15.1579 53.3688 15.1579V14.5263C50.5851 14.5263 47.9684 15.6103 45.9999 17.5784C44.0317 19.5466 42.9478 22.1637 42.9478 24.9474V25.5789C42.9478 28.0883 43.8292 30.4618 45.4445 32.3475C45.2218 34.0496 43.7621 35.3684 42.0004 35.3684C40.0851 35.3684 38.5267 33.81 38.5267 31.8947V15.7895H43.2636V15.1579H38.5267V7.57895H32.8425V15.1579H30.632V15.7895H32.8425V31.8947C32.8425 33.3557 33.6099 34.6405 34.7625 35.3684H32.1142L18.8503 0H17.1493L17.0724 0.204868L15.1362 5.36842L3.88658 35.3684H0V36H8.21053V35.3684H4.56079L10.0082 20.8421H20.9388L26.3862 35.3684H22.7364V36H41.9996C43.9086 36 45.5171 34.6903 45.9746 32.9226C45.9829 32.9309 45.9908 32.9396 45.9991 32.9479C47.9672 34.9161 50.5843 36 53.368 36C53.368 36 53.3688 36 53.3692 36C53.4347 36 53.5046 35.9992 53.5796 35.9972C53.6175 35.9964 53.6558 35.9953 53.6937 35.9941L53.9992 35.9846V35.9803C56.5453 35.8291 58.9176 34.7661 60.7366 32.9475C62.0945 31.5896 63.0316 29.9222 63.482 28.1049L63.4828 28.1053ZM10.2454 20.2105L15.4741 6.26763L20.7028 20.2105H10.2458H10.2454Z" fill="white"/>
<path d="M103.904 28.1053H103.251C102.814 29.7529 101.949 31.2636 100.712 32.5011C99.0122 34.2004 96.7982 35.1975 94.4211 35.3479V35.3384L94.0859 35.3589C94.0168 35.3633 93.9509 35.3661 93.8862 35.3672C93.8542 35.3672 93.8218 35.3684 93.7899 35.3684C91.1779 35.3684 89.053 33.2436 89.053 30.6316V25.8947H104.211V24.9474C104.211 22.1637 103.127 19.547 101.159 17.5784C99.1907 15.6103 96.5736 14.5263 93.7899 14.5263C91.0062 14.5263 88.3895 15.6103 86.4209 17.5784C84.4528 19.5466 83.3688 22.1637 83.3688 24.9474V25.5789C83.3688 28.3626 84.4528 30.9793 86.4209 32.9479C86.627 33.1539 86.8409 33.3501 87.0608 33.5364C86.4738 34.6259 85.3224 35.3684 84.0004 35.3684H81.4741V15.1579H73.2636V15.7895H75.7899V35.3684H71.3688V0H63.1583V0.631579H65.6846V35.3684H63.1583V36H84.0004C85.5217 36 86.852 35.1683 87.5613 33.9359C89.3507 35.2753 91.5146 36 93.7899 36H93.7911C93.8566 36 93.9265 35.9992 94.0015 35.9972C94.0394 35.9964 94.0776 35.9953 94.1155 35.9941L94.4215 35.9846V35.9803C96.9675 35.8291 99.3399 34.7661 101.159 32.9475C102.517 31.5896 103.454 29.9222 103.904 28.1049L103.904 28.1053ZM98.5263 19.8947V25.2632H89.0526V19.8947C89.0526 17.2828 91.1775 15.1579 93.7895 15.1579C96.4015 15.1579 98.5263 17.2828 98.5263 19.8947Z" fill="white"/>
<path d="M121.895 17.7182V17.6842C121.895 14.8982 119.628 12.6316 116.842 12.6316H114.619C113.58 12.6343 112.595 12.9766 111.79 13.6062V12.6316H103.579V13.2632H106.105V35.3684H103.579V36H114.316V35.3684H111.79V14.4501C111.795 14.4446 111.8 14.4391 111.805 14.4339C112.558 13.6808 113.559 13.2651 114.624 13.2632C115.463 13.2651 116.217 13.7641 116.547 14.535C116.727 14.9538 116.765 15.4283 116.654 15.8704L116.363 17.0372C116.151 17.882 116.338 18.7603 116.873 19.4463C117.409 20.1328 118.216 20.5263 119.087 20.5263C120.635 20.5263 121.895 19.2667 121.895 17.7182Z" fill="white"/>
</g>
<defs>
<clipPath id="clip0_243_12721">
<rect width="228" height="36" fill="white"/>
</clipPath>
</defs>
</svg>
