<?xml version="1.0" encoding="utf-8"?>
<!-- Generator: Adobe Illustrator 26.5.0, SVG Export Plug-In . SVG Version: 6.00 Build 0)  -->
<svg version="1.1" xmlns="http://www.w3.org/2000/svg" xmlns:xlink="http://www.w3.org/1999/xlink" x="0px" y="0px"
	 viewBox="0 0 393 114" style="enable-background:new 0 0 393 114;" xml:space="preserve">
<style type="text/css">
	.st0{fill:#000872;}
	.st1{fill:#FFFFFF;}
	.st2{opacity:0.07;fill:#000872;}
	.st3{fill:none;stroke:#000872;stroke-width:2;stroke-miterlimit:10;}
	.st4{fill:#B2B2B2;}
	.st5{fill:none;stroke:#DDDDDD;stroke-miterlimit:10;}
	.st6{clip-path:url(#SVGID_00000157280124568518194810000003205884721712415383_);}
	.st7{fill:none;stroke:#FFFFFF;stroke-width:2;stroke-miterlimit:10;}
	.st8{fill:none;stroke:#000872;stroke-width:2;stroke-miterlimit:10;stroke-dasharray:2.0701,2.0701;}
	.st9{clip-path:url(#SVGID_00000123424377204243008830000006212415387110341272_);}
	.st10{clip-path:url(#SVGID_00000111869475423770337390000007551175951738194062_);}
	.st11{fill:none;stroke:#000872;stroke-width:2;stroke-miterlimit:10;stroke-dasharray:1.8552,1.8552;}
	.st12{fill:none;stroke:#000872;stroke-width:2;stroke-miterlimit:10;stroke-dasharray:1.8551,1.8551;}
	.st13{clip-path:url(#SVGID_00000014630930725046170820000013002921005993534898_);}
	.st14{clip-path:url(#SVGID_00000108295984190197076670000002097400220066435242_);}
</style>
<g id="Guides">
</g>
<g id="BG">
</g>
<g id="Content">
	<g>
		<g>
			<circle class="st1" cx="256" cy="17" r="9"/>
			<path class="st1" d="M361,112V45.76c0.02-0.02,0.03-0.03,0.05-0.05c2.38-2.39,5.55-3.7,8.93-3.71c2.65,0.01,5.04,1.59,6.09,4.03
				c0.57,1.33,0.69,2.83,0.34,4.23l-0.92,3.7c-0.67,2.68-0.08,5.46,1.62,7.63c1.7,2.17,4.25,3.42,7.01,3.42
				c4.9,0,8.89-3.99,8.89-8.89V56c0-8.82-7.18-16-16-16h-7.04c-3.29,0.01-6.41,1.09-8.96,3.09V42v-2h-18h-8v2h8v70h-22h-5.64
				c4.45-1.63,8.53-4.22,11.98-7.67c4.3-4.3,7.27-9.58,8.69-15.33h-2.07c-1.38,5.22-4.12,10-8.04,13.92
				c-5.38,5.38-12.39,8.54-19.92,9.01v-0.03l-1.06,0.07c-0.22,0.01-0.43,0.02-0.63,0.03c-0.1,0-0.2,0-0.31,0l0,0
				c-8.27,0-15-6.73-15-15V82h30h4h14v-3c0-8.81-3.43-17.1-9.67-23.33C321.1,49.43,312.81,46,304,46s-17.1,3.43-23.33,9.67
				C274.43,61.9,271,70.19,271,79v2c0,8.81,3.43,17.1,9.67,23.33c6,6,13.89,9.4,22.33,9.65V114h18h22h18h8v-2H361z M289,63
				c0-8.27,6.73-15,15-15s15,6.73,15,15v17h-30V63z"/>
			<path class="st1" d="M288,112h-15h-0.75H265V50v-2h-18h-8v2h8v62h-14V2V0h-18h-8v2h8v110h-8v2h8h18h14h17.2h31.79
				C293.6,112.73,290.89,112,288,112z"/>
			<path class="st1" d="M40,114v-2H21.44l17.25-46h34.61l17.25,46H72v2h18.56h18.14h0.75H120h2.56h6.89H140
				c6.04,0,11.14-4.15,12.59-9.75c0.03,0.03,0.05,0.05,0.08,0.08c4.97,4.97,11.24,8.16,18.05,9.24l-0.16,0.42h6.89l-0.01-0.03
				l0.57-0.02v-0.01c8.06-0.48,15.58-3.84,21.33-9.6c4.3-4.3,7.27-9.58,8.69-15.33h-2.07c-1.38,5.22-4.12,10-8.04,13.92
				c-5.38,5.38-12.39,8.54-19.92,9.01v-0.03l-1.06,0.07c-0.2,0.01-0.39,0.02-0.58,0.03c-0.12,0-0.24,0-0.35,0l0,0
				c-8.27,0-15-6.73-15-15V82h30h4h14v-3c0-8.81-3.43-17.1-9.67-23.33C193.1,49.43,184.81,46,176,46v2c8.27,0,15,6.73,15,15v17h-30
				V63c0-8.27,6.73-15,15-15v-2c-8.81,0-17.1,3.43-23.33,9.67C146.43,61.9,143,70.19,143,79v2c0,7.95,2.79,15.46,7.91,21.43
				c-0.7,5.39-5.33,9.57-10.91,9.57c-6.07,0-11-4.93-11-11v-3v-2V50h15v-2h-15V24h-18v24h-7v2h7v46v2v3c0,4.63,2.43,8.7,6.08,11
				h-7.64h-0.75l-42-112h-5.39l-0.24,0.65L54.93,17l-35.62,95H0v2h19.31h2.14H40z M56,19.85L72.56,64H39.44L56,19.85z"/>
		</g>
	</g>
</g>
</svg>
