<?xml version="1.0" encoding="utf-8"?>
<!-- Generator: Adobe Illustrator 26.5.0, SVG Export Plug-In . SVG Version: 6.00 Build 0)  -->
<svg version="1.1" xmlns="http://www.w3.org/2000/svg" xmlns:xlink="http://www.w3.org/1999/xlink" x="0px" y="0px"
	 viewBox="0 0 393 114" style="enable-background:new 0 0 393 114;" xml:space="preserve">
<style type="text/css">
	.st0{fill:#000872;}
	.st1{fill:#FFFFFF;}
	.st2{opacity:0.07;fill:#000872;}
	.st3{fill:none;stroke:#000872;stroke-width:2;stroke-miterlimit:10;}
	.st4{fill:#B2B2B2;}
	.st5{fill:none;stroke:#DDDDDD;stroke-miterlimit:10;}
	.st6{clip-path:url(#SVGID_00000054956943364949272010000017465161481750720439_);}
	.st7{fill:none;stroke:#FFFFFF;stroke-width:2;stroke-miterlimit:10;}
	.st8{fill:none;stroke:#000872;stroke-width:2;stroke-miterlimit:10;stroke-dasharray:2.0701,2.0701;}
	.st9{clip-path:url(#SVGID_00000005258733006930761350000010703024207454899867_);}
	.st10{clip-path:url(#SVGID_00000101825283417427188760000003664363058229982398_);}
	.st11{fill:none;stroke:#000872;stroke-width:2;stroke-miterlimit:10;stroke-dasharray:1.8552,1.8552;}
	.st12{fill:none;stroke:#000872;stroke-width:2;stroke-miterlimit:10;stroke-dasharray:1.8551,1.8551;}
	.st13{clip-path:url(#SVGID_00000074408931467618793530000009290845158266008217_);}
	.st14{clip-path:url(#SVGID_00000012448031058506364450000000118074590248149663_);}
</style>
<g id="Guides">
</g>
<g id="BG">
</g>
<g id="Content">
	<g>
		<g>
			<path class="st0" d="M90.56,0L73.31,46H38.69L21.44,0h-2.14l35.62,95l6.13,16.35l0.24,0.65h5.39l42-112H90.56z M56,92.15
				L39.44,48h33.11L56,92.15z"/>
			<path class="st0" d="M303,7.01c-1.59-2.97-4.04-5.42-7.01-7.01H288c8.27,0,15,6.73,15,15v16v31h-8v2h8h18v-2V0h-18V7.01z"/>
			<polygon class="st0" points="343,110 335,110 335,112 343,112 361,112 361,110 361,0 343,0 			"/>
			<path class="st0" d="M255,15.25V62h-22V0h-18v62h-2h-12.31l-17.62-47l-5.62-15h-6.89L150,54.82L135.07,15l-5.62-15h-6.89
				L99.31,62H91v2h7.56h18.14H125v-2h-7.56L134,17.85l14.93,39.82L147.31,62H139v2h7.56h18.14H173v-2h-7.56L182,17.85L198.56,62H187
				v2h26h2v17c0,8.28,3.22,16.07,9.08,21.92S237.72,112,246,112h1h10c8.82,0,16-7.18,16-16v-0.11c0-4.9-3.99-8.89-8.89-8.89l0,0
				c-2.76,0-5.31,1.25-7.01,3.42c-1.7,2.17-2.29,4.95-1.62,7.63l0.92,3.7c0.35,1.4,0.23,2.9-0.34,4.23
				c-1.05,2.45-3.45,4.03-6.11,4.03H247c-7.72,0-14-6.28-14-14v-8V64h22h18v-2V15c0-8.27,6.73-15,15-15h-23.8
				C258.73,2.9,255,8.65,255,15.25z"/>
		</g>
	</g>
</g>
</svg>
