<?xml version="1.0" encoding="utf-8"?>
<!-- Generator: Adobe Illustrator 26.5.0, SVG Export Plug-In . SVG Version: 6.00 Build 0)  -->
<svg version="1.1" xmlns="http://www.w3.org/2000/svg" xmlns:xlink="http://www.w3.org/1999/xlink" x="0px" y="0px"
	 viewBox="0 0 40 40" style="enable-background:new 0 0 40 40;" xml:space="preserve">
<style type="text/css">
	.st0{fill:#000872;}
	.st1{fill:#FFFFFF;}
	.st2{opacity:0.07;fill:#000872;}
	.st3{fill:none;stroke:#000872;stroke-width:2;stroke-miterlimit:10;}
	.st4{fill:#B2B2B2;}
	.st5{fill:none;stroke:#DDDDDD;stroke-miterlimit:10;}
	.st6{clip-path:url(#SVGID_00000048463139440118934130000001786868787453701011_);}
	.st7{fill:none;stroke:#FFFFFF;stroke-width:2;stroke-miterlimit:10;}
	.st8{fill:none;stroke:#000872;stroke-width:2;stroke-miterlimit:10;stroke-dasharray:2.0701,2.0701;}
	.st9{clip-path:url(#SVGID_00000150786958275794164840000012683768649731260558_);}
	.st10{clip-path:url(#SVGID_00000088103227671401442780000001162568700876820898_);}
	.st11{fill:none;stroke:#000872;stroke-width:2;stroke-miterlimit:10;stroke-dasharray:1.8552,1.8552;}
	.st12{fill:none;stroke:#000872;stroke-width:2;stroke-miterlimit:10;stroke-dasharray:1.8551,1.8551;}
	.st13{clip-path:url(#SVGID_00000163759669224071381250000003383352792862643127_);}
	.st14{clip-path:url(#SVGID_00000163776110473733775140000002861140080474799259_);}
	.st15{fill:none;}
	.st16{fill:none;stroke:#000872;stroke-width:2;stroke-miterlimit:10;stroke-dasharray:2.0262,2.0262;}
	.st17{fill:none;stroke:#000872;stroke-width:2;stroke-linecap:square;stroke-miterlimit:10;}
</style>
<g id="Guides">
</g>
<g id="BG">
</g>
<g id="Content">
	<g>
	</g>
	<g>
		<g>
			<path class="st17" d="M50,0c0,5.52-4.48,10-10,10S30,5.52,30,0"/>
			<path class="st17" d="M30,0c0,5.52-4.48,10-10,10S10,5.52,10,0"/>
			<path class="st17" d="M10,0c0,5.52-4.48,10-10,10S-10,5.52-10,0"/>
			<path class="st17" d="M6,0c0,3.31-2.69,6-6,6s-6-2.69-6-6"/>
			<path class="st17" d="M26,0c0,3.31-2.69,6-6,6s-6-2.69-6-6"/>
			<path class="st17" d="M46,0c0,3.31-2.69,6-6,6s-6-2.69-6-6"/>
		</g>
		<g>
			<path class="st17" d="M50,20c-5.52,0-10-4.48-10-10"/>
			<path class="st17" d="M40,10c0,5.52-4.48,10-10,10s-10-4.48-10-10"/>
			<path class="st17" d="M20,10c0,5.52-4.48,10-10,10S0,15.52,0,10"/>
			<path class="st17" d="M0,10c0,5.52-4.48,10-10,10"/>
			<path class="st17" d="M16,10c0,3.31-2.69,6-6,6s-6-2.69-6-6"/>
			<path class="st17" d="M36,10c0,3.31-2.69,6-6,6s-6-2.69-6-6"/>
		</g>
		<g>
			<path class="st17" d="M50,20c0,5.52-4.48,10-10,10s-10-4.48-10-10"/>
			<path class="st17" d="M30,20c0,5.52-4.48,10-10,10s-10-4.48-10-10"/>
			<path class="st17" d="M10,20c0,5.52-4.48,10-10,10s-10-4.48-10-10"/>
			<path class="st17" d="M6,20c0,3.31-2.69,6-6,6s-6-2.69-6-6"/>
			<path class="st17" d="M26,20c0,3.31-2.69,6-6,6s-6-2.69-6-6"/>
			<path class="st17" d="M46,20c0,3.31-2.69,6-6,6s-6-2.69-6-6"/>
		</g>
	</g>
</g>
</svg>
