<?xml version="1.0" encoding="utf-8"?>
<!-- Generator: Adobe Illustrator 26.5.0, SVG Export Plug-In . SVG Version: 6.00 Build 0)  -->
<svg version="1.1" xmlns="http://www.w3.org/2000/svg" xmlns:xlink="http://www.w3.org/1999/xlink" x="0px" y="0px"
	 viewBox="0 0 80 240" style="enable-background:new 0 0 80 240;" xml:space="preserve">
<style type="text/css">
	.st0{fill:#000872;}
	.st1{fill:#FFFFFF;}
	.st2{opacity:0.07;fill:#000872;}
	.st3{fill:none;stroke:#000872;stroke-width:2;stroke-miterlimit:10;}
	.st4{fill:#B2B2B2;}
	.st5{fill:none;stroke:#DDDDDD;stroke-miterlimit:10;}
	.st6{clip-path:url(#SVGID_00000078035001458761303410000002512929373854673553_);}
	.st7{fill:none;stroke:#FFFFFF;stroke-width:2;stroke-miterlimit:10;}
	.st8{fill:none;stroke:#000872;stroke-width:2;stroke-miterlimit:10;stroke-dasharray:2.0701,2.0701;}
	.st9{clip-path:url(#SVGID_00000034081592378864897840000015877976772327555760_);}
	.st10{clip-path:url(#SVGID_00000127722890812106668910000013056323036114749573_);}
	.st11{fill:none;stroke:#000872;stroke-width:2;stroke-miterlimit:10;stroke-dasharray:1.8552,1.8552;}
	.st12{fill:none;stroke:#000872;stroke-width:2;stroke-miterlimit:10;stroke-dasharray:1.8551,1.8551;}
	.st13{clip-path:url(#SVGID_00000157277756763086431920000000495765491942004879_);}
	.st14{clip-path:url(#SVGID_00000120533158578183458990000016329196780808722848_);}
	.st15{fill:none;}
	.st16{fill:none;stroke:#000872;stroke-width:2;stroke-miterlimit:10;stroke-dasharray:2.0262,2.0262;}
	.st17{fill:none;stroke:#000872;stroke-width:2;stroke-linecap:square;stroke-miterlimit:10;}
</style>
<g id="Guides">
</g>
<g id="BG">
</g>
<g id="Content">
	<g>
	</g>
	<g>
		
			<rect x="-34.14" y="145.86" transform="matrix(0.7071 -0.7071 0.7071 0.7071 -118.9949 32.7208)" class="st3" width="28.28" height="28.28"/>
		<path class="st3" d="M0,160l-14.14-14.14C-17.76,149.48-20,154.48-20,160s2.24,10.52,5.86,14.14L0,160z"/>
		<path class="st3" d="M-11.31,148.69c-2.9,2.9-4.69,6.9-4.69,11.31s1.79,8.42,4.69,11.31L0,160L-11.31,148.69z"/>
		<path class="st3" d="M-8.49,151.51c-2.17,2.17-3.51,5.17-3.51,8.49s1.34,6.31,3.51,8.49L0,160L-8.49,151.51z"/>
	</g>
	<g>
		
			<rect x="25.86" y="125.86" transform="matrix(0.7071 -0.7071 0.7071 0.7071 -87.2792 69.2893)" class="st3" width="28.28" height="28.28"/>
		<path class="st3" d="M40,160l14.14-14.14C50.52,142.24,45.52,140,40,140s-10.52,2.24-14.14,5.86L40,160z"/>
		<path class="st3" d="M51.31,148.69c-2.9-2.9-6.9-4.69-11.31-4.69s-8.42,1.79-11.31,4.69L40,160L51.31,148.69z"/>
		<path class="st3" d="M48.49,151.51C46.31,149.34,43.31,148,40,148s-6.31,1.34-8.49,3.51L40,160L48.49,151.51z"/>
		<path class="st0" d="M48.49,151.51C46.31,149.34,43.31,148,40,148s-6.31,1.34-8.49,3.51L40,160L48.49,151.51z"/>
		<line class="st3" x1="40" y1="132" x2="40" y2="138"/>
		<line class="st3" x1="35.49" y1="134.4" x2="36.18" y2="138.33"/>
		<line class="st3" x1="31.11" y1="135.57" x2="32.48" y2="139.33"/>
		<line class="st3" x1="27" y1="137.48" x2="29" y2="140.95"/>
		<line class="st3" x1="44.51" y1="134.4" x2="43.82" y2="138.33"/>
		<line class="st3" x1="48.89" y1="135.57" x2="47.52" y2="139.33"/>
		<line class="st3" x1="53" y1="137.48" x2="51" y2="140.95"/>
	</g>
	<g>
		
			<rect x="45.86" y="145.86" transform="matrix(0.7071 -0.7071 0.7071 0.7071 -95.5635 89.2893)" class="st3" width="28.28" height="28.28"/>
		<path class="st3" d="M80,160l-14.14-14.14C62.24,149.48,60,154.48,60,160s2.24,10.52,5.86,14.14L80,160z"/>
		<path class="st3" d="M68.69,148.69c-2.9,2.9-4.69,6.9-4.69,11.31s1.79,8.42,4.69,11.31L80,160L68.69,148.69z"/>
		<path class="st3" d="M71.51,151.51C69.34,153.69,68,156.69,68,160s1.34,6.31,3.51,8.49L80,160L71.51,151.51z"/>
		<path class="st0" d="M71.51,151.51C69.34,153.69,68,156.69,68,160s1.34,6.31,3.51,8.49L80,160L71.51,151.51z"/>
		<line class="st3" x1="52" y1="160" x2="58" y2="160"/>
		<line class="st3" x1="54.39" y1="164.51" x2="58.33" y2="163.82"/>
		<line class="st3" x1="55.57" y1="168.89" x2="59.33" y2="167.52"/>
		<line class="st3" x1="57.48" y1="173" x2="60.95" y2="171"/>
		<line class="st3" x1="54.39" y1="155.49" x2="58.33" y2="156.18"/>
		<line class="st3" x1="55.57" y1="151.11" x2="59.33" y2="152.48"/>
		<line class="st3" x1="57.48" y1="147" x2="60.95" y2="149"/>
	</g>
	<g>
		
			<rect x="5.86" y="145.86" transform="matrix(0.7071 -0.7071 0.7071 0.7071 -107.2792 61.0051)" class="st3" width="28.28" height="28.28"/>
		<path class="st3" d="M0,160l14.14,14.14C17.76,170.52,20,165.52,20,160s-2.24-10.52-5.86-14.14L0,160z"/>
		<path class="st3" d="M11.31,171.31c2.9-2.9,4.69-6.9,4.69-11.31s-1.79-8.42-4.69-11.31L0,160L11.31,171.31z"/>
		<path class="st3" d="M8.49,168.49c2.17-2.17,3.51-5.17,3.51-8.49s-1.34-6.31-3.51-8.49L0,160L8.49,168.49z"/>
		<path class="st0" d="M8.49,168.49c2.17-2.17,3.51-5.17,3.51-8.49s-1.34-6.31-3.51-8.49L0,160L8.49,168.49z"/>
		<line class="st3" x1="28" y1="160" x2="22" y2="160"/>
		<line class="st3" x1="25.61" y1="155.49" x2="21.67" y2="156.18"/>
		<line class="st3" x1="24.43" y1="151.11" x2="20.67" y2="152.48"/>
		<line class="st3" x1="22.52" y1="147" x2="19.05" y2="149"/>
		<line class="st3" x1="25.61" y1="164.51" x2="21.67" y2="163.82"/>
		<line class="st3" x1="24.43" y1="168.89" x2="20.67" y2="167.52"/>
		<line class="st3" x1="22.52" y1="173" x2="19.05" y2="171"/>
	</g>
	<g>
		
			<rect x="25.86" y="165.86" transform="matrix(0.7071 -0.7071 0.7071 0.7071 -115.5635 81.0051)" class="st3" width="28.28" height="28.28"/>
		<path class="st3" d="M40,160l-14.14,14.14C29.48,177.76,34.48,180,40,180s10.52-2.24,14.14-5.86L40,160z"/>
		<path class="st3" d="M28.69,171.31c2.9,2.9,6.9,4.69,11.31,4.69s8.42-1.79,11.31-4.69L40,160L28.69,171.31z"/>
		<path class="st3" d="M31.51,168.49c2.17,2.17,5.17,3.51,8.49,3.51s6.31-1.34,8.49-3.51L40,160L31.51,168.49z"/>
		<path class="st0" d="M31.51,168.49c2.17,2.17,5.17,3.51,8.49,3.51s6.31-1.34,8.49-3.51L40,160L31.51,168.49z"/>
		<line class="st3" x1="40" y1="188" x2="40" y2="182"/>
		<line class="st3" x1="44.51" y1="185.6" x2="43.82" y2="181.67"/>
		<line class="st3" x1="48.89" y1="184.43" x2="47.52" y2="180.67"/>
		<line class="st3" x1="53" y1="182.52" x2="51" y2="179.05"/>
		<line class="st3" x1="35.49" y1="185.6" x2="36.18" y2="181.67"/>
		<line class="st3" x1="31.11" y1="184.43" x2="32.48" y2="180.67"/>
		<line class="st3" x1="27" y1="182.52" x2="29" y2="179.05"/>
	</g>
	<g>
		
			<rect x="85.86" y="145.86" transform="matrix(0.7071 -0.7071 0.7071 0.7071 -83.8478 117.5736)" class="st3" width="28.28" height="28.28"/>
		<path class="st3" d="M80,160l14.14,14.14c3.62-3.62,5.86-8.62,5.86-14.14s-2.24-10.52-5.86-14.14L80,160z"/>
		<path class="st3" d="M91.31,171.31c2.9-2.9,4.69-6.9,4.69-11.31s-1.79-8.42-4.69-11.31L80,160L91.31,171.31z"/>
		<path class="st3" d="M88.49,168.49c2.17-2.17,3.51-5.17,3.51-8.49s-1.34-6.31-3.51-8.49L80,160L88.49,168.49z"/>
	</g>
	<g>
		
			<rect x="-14.14" y="85.86" transform="matrix(0.7071 -0.7071 0.7071 0.7071 -70.7107 29.2893)" class="st3" width="28.28" height="28.28"/>
		<path class="st3" d="M0,120l14.14-14.14C10.52,102.24,5.52,100,0,100s-10.52,2.24-14.14,5.86L0,120z"/>
		<path class="st3" d="M11.31,108.69C8.42,105.79,4.42,104,0,104s-8.42,1.79-11.31,4.69L0,120L11.31,108.69z"/>
		<path class="st3" d="M8.49,111.51C6.31,109.34,3.31,108,0,108s-6.31,1.34-8.49,3.51L0,120L8.49,111.51z"/>
		<path class="st0" d="M8.49,111.51C6.31,109.34,3.31,108,0,108s-6.31,1.34-8.49,3.51L0,120L8.49,111.51z"/>
		<line class="st3" x1="0" y1="92" x2="0" y2="98"/>
		<line class="st3" x1="4.51" y1="94.39" x2="3.82" y2="98.33"/>
		<line class="st3" x1="8.89" y1="95.57" x2="7.52" y2="99.33"/>
		<line class="st3" x1="13" y1="97.48" x2="11" y2="100.95"/>
	</g>
	<g>
		
			<rect x="5.86" y="105.86" transform="matrix(0.7071 -0.7071 0.7071 0.7071 -78.9949 49.2893)" class="st3" width="28.28" height="28.28"/>
		<path class="st3" d="M40,120l-14.14-14.14C22.24,109.48,20,114.48,20,120s2.24,10.52,5.86,14.14L40,120z"/>
		<path class="st3" d="M28.69,108.69c-2.9,2.9-4.69,6.9-4.69,11.31s1.79,8.42,4.69,11.31L40,120L28.69,108.69z"/>
		<path class="st3" d="M31.51,111.51C29.34,113.69,28,116.69,28,120s1.34,6.31,3.51,8.49L40,120L31.51,111.51z"/>
		<path class="st0" d="M31.51,111.51C29.34,113.69,28,116.69,28,120s1.34,6.31,3.51,8.49L40,120L31.51,111.51z"/>
		<line class="st3" x1="12" y1="120" x2="18" y2="120"/>
		<line class="st3" x1="14.39" y1="124.51" x2="18.33" y2="123.82"/>
		<line class="st3" x1="15.57" y1="128.89" x2="19.33" y2="127.52"/>
		<line class="st3" x1="17.48" y1="133" x2="20.95" y2="131"/>
		<line class="st3" x1="14.39" y1="115.49" x2="18.33" y2="116.18"/>
		<line class="st3" x1="15.57" y1="111.11" x2="19.33" y2="112.48"/>
		<line class="st3" x1="17.48" y1="107" x2="20.95" y2="109"/>
	</g>
	<g>
		
			<rect x="-34.14" y="105.86" transform="matrix(0.7071 -0.7071 0.7071 0.7071 -90.7107 21.0051)" class="st3" width="28.28" height="28.28"/>
	</g>
	<g>
		
			<rect x="-14.14" y="125.86" transform="matrix(0.7071 -0.7071 0.7071 0.7071 -98.9949 41.0051)" class="st3" width="28.28" height="28.28"/>
		<path class="st3" d="M0,120l-14.14,14.14C-10.52,137.76-5.52,140,0,140s10.52-2.24,14.14-5.86L0,120z"/>
		<path class="st3" d="M-11.31,131.31c2.9,2.9,6.9,4.69,11.31,4.69s8.42-1.79,11.31-4.69L0,120L-11.31,131.31z"/>
		<path class="st3" d="M-8.49,128.49C-6.31,130.66-3.31,132,0,132s6.31-1.34,8.49-3.51L0,120L-8.49,128.49z"/>
		<path class="st0" d="M-8.49,128.49C-6.31,130.66-3.31,132,0,132s6.31-1.34,8.49-3.51L0,120L-8.49,128.49z"/>
		<line class="st3" x1="0" y1="148" x2="0" y2="142"/>
		<line class="st3" x1="4.51" y1="145.6" x2="3.82" y2="141.67"/>
		<line class="st3" x1="8.89" y1="144.43" x2="7.52" y2="140.67"/>
		<line class="st3" x1="13" y1="142.52" x2="11" y2="139.05"/>
	</g>
	<g>
		
			<rect x="65.86" y="85.86" transform="matrix(0.7071 -0.7071 0.7071 0.7071 -47.2792 85.8579)" class="st3" width="28.28" height="28.28"/>
		<path class="st3" d="M80,120l14.14-14.14C90.52,102.24,85.52,100,80,100s-10.52,2.24-14.14,5.86L80,120z"/>
		<path class="st3" d="M91.31,108.69c-2.9-2.9-6.9-4.69-11.31-4.69s-8.42,1.79-11.31,4.69L80,120L91.31,108.69z"/>
		<path class="st3" d="M88.49,111.51C86.31,109.34,83.31,108,80,108s-6.31,1.34-8.49,3.51L80,120L88.49,111.51z"/>
		<path class="st0" d="M88.49,111.51C86.31,109.34,83.31,108,80,108s-6.31,1.34-8.49,3.51L80,120L88.49,111.51z"/>
		<line class="st3" x1="80" y1="92" x2="80" y2="98"/>
		<line class="st3" x1="75.49" y1="94.39" x2="76.18" y2="98.33"/>
		<line class="st3" x1="71.11" y1="95.57" x2="72.48" y2="99.33"/>
		<line class="st3" x1="67" y1="97.48" x2="69" y2="100.95"/>
	</g>
	<g>
		
			<rect x="85.86" y="105.86" transform="matrix(0.7071 -0.7071 0.7071 0.7071 -55.5635 105.8579)" class="st3" width="28.28" height="28.28"/>
	</g>
	<g>
		
			<rect x="45.86" y="105.86" transform="matrix(0.7071 -0.7071 0.7071 0.7071 -67.2792 77.5736)" class="st3" width="28.28" height="28.28"/>
		<path class="st3" d="M40,120l14.14,14.14C57.76,130.52,60,125.52,60,120s-2.24-10.52-5.86-14.14L40,120z"/>
		<path class="st3" d="M51.31,131.31c2.9-2.9,4.69-6.9,4.69-11.31s-1.79-8.42-4.69-11.31L40,120L51.31,131.31z"/>
		<path class="st3" d="M48.49,128.49c2.17-2.17,3.51-5.17,3.51-8.49s-1.34-6.31-3.51-8.49L40,120L48.49,128.49z"/>
		<path class="st0" d="M48.49,128.49c2.17-2.17,3.51-5.17,3.51-8.49s-1.34-6.31-3.51-8.49L40,120L48.49,128.49z"/>
		<line class="st3" x1="68" y1="120" x2="62" y2="120"/>
		<line class="st3" x1="65.61" y1="115.49" x2="61.67" y2="116.18"/>
		<line class="st3" x1="64.43" y1="111.11" x2="60.67" y2="112.48"/>
		<line class="st3" x1="62.52" y1="107" x2="59.05" y2="109"/>
		<line class="st3" x1="65.61" y1="124.51" x2="61.67" y2="123.82"/>
		<line class="st3" x1="64.43" y1="128.89" x2="60.67" y2="127.52"/>
		<line class="st3" x1="62.52" y1="133" x2="59.05" y2="131"/>
	</g>
	<g>
		
			<rect x="65.86" y="125.86" transform="matrix(0.7071 -0.7071 0.7071 0.7071 -75.5635 97.5736)" class="st3" width="28.28" height="28.28"/>
		<path class="st3" d="M80,120l-14.14,14.14C69.48,137.76,74.48,140,80,140s10.52-2.24,14.14-5.86L80,120z"/>
		<path class="st3" d="M68.69,131.31c2.9,2.9,6.9,4.69,11.31,4.69s8.42-1.79,11.31-4.69L80,120L68.69,131.31z"/>
		<path class="st3" d="M71.51,128.49c2.17,2.17,5.17,3.51,8.49,3.51s6.31-1.34,8.49-3.51L80,120L71.51,128.49z"/>
		<path class="st0" d="M71.51,128.49c2.17,2.17,5.17,3.51,8.49,3.51s6.31-1.34,8.49-3.51L80,120L71.51,128.49z"/>
		<line class="st3" x1="80" y1="148" x2="80" y2="142"/>
		<line class="st3" x1="75.49" y1="145.6" x2="76.18" y2="141.67"/>
		<line class="st3" x1="71.11" y1="144.43" x2="72.48" y2="140.67"/>
		<line class="st3" x1="67" y1="142.52" x2="69" y2="139.05"/>
	</g>
	<g>
		
			<rect x="-34.14" y="225.86" transform="matrix(0.7071 -0.7071 0.7071 0.7071 -175.5635 56.1522)" class="st3" width="28.28" height="28.28"/>
		<path class="st3" d="M0,240l-14.14-14.14C-17.76,229.48-20,234.48-20,240s2.24,10.52,5.86,14.14L0,240z"/>
		<path class="st3" d="M-11.31,228.69c-2.9,2.9-4.69,6.9-4.69,11.31s1.79,8.42,4.69,11.31L0,240L-11.31,228.69z"/>
		<path class="st3" d="M-8.49,231.51c-2.17,2.17-3.51,5.17-3.51,8.49s1.34,6.31,3.51,8.49L0,240L-8.49,231.51z"/>
	</g>
	<g>
		
			<rect x="25.86" y="205.86" transform="matrix(0.7071 -0.7071 0.7071 0.7071 -143.8478 92.7208)" class="st3" width="28.28" height="28.28"/>
		<path class="st3" d="M40,240l14.14-14.14C50.52,222.24,45.52,220,40,220s-10.52,2.24-14.14,5.86L40,240z"/>
		<path class="st3" d="M51.31,228.69c-2.9-2.9-6.9-4.69-11.31-4.69s-8.42,1.79-11.31,4.69L40,240L51.31,228.69z"/>
		<path class="st3" d="M48.49,231.51C46.31,229.34,43.31,228,40,228s-6.31,1.34-8.49,3.51L40,240L48.49,231.51z"/>
		<path class="st0" d="M48.49,231.51C46.31,229.34,43.31,228,40,228s-6.31,1.34-8.49,3.51L40,240L48.49,231.51z"/>
		<line class="st3" x1="40" y1="212" x2="40" y2="218"/>
		<line class="st3" x1="35.49" y1="214.4" x2="36.18" y2="218.33"/>
		<line class="st3" x1="31.11" y1="215.57" x2="32.48" y2="219.33"/>
		<line class="st3" x1="27" y1="217.48" x2="29" y2="220.95"/>
		<line class="st3" x1="44.51" y1="214.4" x2="43.82" y2="218.33"/>
		<line class="st3" x1="48.89" y1="215.57" x2="47.52" y2="219.33"/>
		<line class="st3" x1="53" y1="217.48" x2="51" y2="220.95"/>
	</g>
	<g>
		
			<rect x="45.86" y="225.86" transform="matrix(0.7071 -0.7071 0.7071 0.7071 -152.132 112.7208)" class="st3" width="28.28" height="28.28"/>
		<path class="st3" d="M80,240l-14.14-14.14C62.24,229.48,60,234.48,60,240s2.24,10.52,5.86,14.14L80,240z"/>
		<path class="st3" d="M68.69,228.69c-2.9,2.9-4.69,6.9-4.69,11.31s1.79,8.42,4.69,11.31L80,240L68.69,228.69z"/>
		<path class="st3" d="M71.51,231.51C69.34,233.69,68,236.69,68,240s1.34,6.31,3.51,8.49L80,240L71.51,231.51z"/>
		<path class="st0" d="M71.51,231.51C69.34,233.69,68,236.69,68,240s1.34,6.31,3.51,8.49L80,240L71.51,231.51z"/>
		<line class="st3" x1="52" y1="240" x2="58" y2="240"/>
		<line class="st3" x1="54.39" y1="235.49" x2="58.33" y2="236.18"/>
		<line class="st3" x1="55.57" y1="231.11" x2="59.33" y2="232.48"/>
		<line class="st3" x1="57.48" y1="227" x2="60.95" y2="229"/>
	</g>
	<g>
		
			<rect x="5.86" y="225.86" transform="matrix(0.7071 -0.7071 0.7071 0.7071 -163.8478 84.4365)" class="st3" width="28.28" height="28.28"/>
		<path class="st3" d="M0,240l14.14,14.14C17.76,250.52,20,245.52,20,240s-2.24-10.52-5.86-14.14L0,240z"/>
		<path class="st3" d="M11.31,251.31c2.9-2.9,4.69-6.9,4.69-11.31s-1.79-8.42-4.69-11.31L0,240L11.31,251.31z"/>
		<path class="st3" d="M8.49,248.49c2.17-2.17,3.51-5.17,3.51-8.49s-1.34-6.31-3.51-8.49L0,240L8.49,248.49z"/>
		<path class="st0" d="M8.49,248.49c2.17-2.17,3.51-5.17,3.51-8.49s-1.34-6.31-3.51-8.49L0,240L8.49,248.49z"/>
		<line class="st3" x1="28" y1="240" x2="22" y2="240"/>
		<line class="st3" x1="25.61" y1="235.49" x2="21.67" y2="236.18"/>
		<line class="st3" x1="24.43" y1="231.11" x2="20.67" y2="232.48"/>
		<line class="st3" x1="22.52" y1="227" x2="19.05" y2="229"/>
	</g>
	<g>
		
			<rect x="85.86" y="225.86" transform="matrix(0.7071 -0.7071 0.7071 0.7071 -140.4163 141.0051)" class="st3" width="28.28" height="28.28"/>
		<path class="st3" d="M80,240l14.14,14.14c3.62-3.62,5.86-8.62,5.86-14.14s-2.24-10.52-5.86-14.14L80,240z"/>
		<path class="st3" d="M91.31,251.31c2.9-2.9,4.69-6.9,4.69-11.31s-1.79-8.42-4.69-11.31L80,240L91.31,251.31z"/>
		<path class="st3" d="M88.49,248.49c2.17-2.17,3.51-5.17,3.51-8.49s-1.34-6.31-3.51-8.49L80,240L88.49,248.49z"/>
	</g>
	<g>
		
			<rect x="-14.14" y="165.86" transform="matrix(0.7071 -0.7071 0.7071 0.7071 -127.2792 52.7208)" class="st3" width="28.28" height="28.28"/>
		<path class="st3" d="M0,200l14.14-14.14C10.52,182.24,5.52,180,0,180s-10.52,2.24-14.14,5.86L0,200z"/>
		<path class="st3" d="M11.31,188.69C8.42,185.79,4.42,184,0,184s-8.42,1.79-11.31,4.69L0,200L11.31,188.69z"/>
		<path class="st3" d="M8.49,191.51C6.31,189.34,3.31,188,0,188s-6.31,1.34-8.49,3.51L0,200L8.49,191.51z"/>
		<path class="st0" d="M8.49,191.51C6.31,189.34,3.31,188,0,188s-6.31,1.34-8.49,3.51L0,200L8.49,191.51z"/>
		<line class="st3" x1="0" y1="172" x2="0" y2="178"/>
		<line class="st3" x1="4.51" y1="174.4" x2="3.82" y2="178.33"/>
		<line class="st3" x1="8.89" y1="175.57" x2="7.52" y2="179.33"/>
		<line class="st3" x1="13" y1="177.48" x2="11" y2="180.95"/>
	</g>
	<g>
		
			<rect x="5.86" y="185.86" transform="matrix(0.7071 -0.7071 0.7071 0.7071 -135.5635 72.7208)" class="st3" width="28.28" height="28.28"/>
		<path class="st3" d="M40,200l-14.14-14.14C22.24,189.48,20,194.48,20,200s2.24,10.52,5.86,14.14L40,200z"/>
		<path class="st3" d="M28.69,188.69c-2.9,2.9-4.69,6.9-4.69,11.31s1.79,8.42,4.69,11.31L40,200L28.69,188.69z"/>
		<path class="st3" d="M31.51,191.51C29.34,193.69,28,196.69,28,200s1.34,6.31,3.51,8.49L40,200L31.51,191.51z"/>
		<path class="st0" d="M31.51,191.51C29.34,193.69,28,196.69,28,200s1.34,6.31,3.51,8.49L40,200L31.51,191.51z"/>
		<line class="st3" x1="12" y1="200" x2="18" y2="200"/>
		<line class="st3" x1="14.39" y1="204.51" x2="18.33" y2="203.82"/>
		<line class="st3" x1="15.57" y1="208.89" x2="19.33" y2="207.52"/>
		<line class="st3" x1="17.48" y1="213" x2="20.95" y2="211"/>
		<line class="st3" x1="14.39" y1="195.49" x2="18.33" y2="196.18"/>
		<line class="st3" x1="15.57" y1="191.11" x2="19.33" y2="192.48"/>
		<line class="st3" x1="17.48" y1="187" x2="20.95" y2="189"/>
	</g>
	<g>
		
			<rect x="-34.14" y="185.86" transform="matrix(0.7071 -0.7071 0.7071 0.7071 -147.2792 44.4365)" class="st3" width="28.28" height="28.28"/>
	</g>
	<g>
		
			<rect x="-14.14" y="205.86" transform="matrix(0.7071 -0.7071 0.7071 0.7071 -155.5635 64.4365)" class="st3" width="28.28" height="28.28"/>
		<path class="st3" d="M0,200l-14.14,14.14C-10.52,217.76-5.52,220,0,220s10.52-2.24,14.14-5.86L0,200z"/>
		<path class="st3" d="M-11.31,211.31c2.9,2.9,6.9,4.69,11.31,4.69s8.42-1.79,11.31-4.69L0,200L-11.31,211.31z"/>
		<path class="st3" d="M-8.49,208.49C-6.31,210.66-3.31,212,0,212s6.31-1.34,8.49-3.51L0,200L-8.49,208.49z"/>
		<path class="st0" d="M-8.49,208.49C-6.31,210.66-3.31,212,0,212s6.31-1.34,8.49-3.51L0,200L-8.49,208.49z"/>
		<line class="st3" x1="0" y1="228" x2="0" y2="222"/>
		<line class="st3" x1="4.51" y1="225.6" x2="3.82" y2="221.67"/>
		<line class="st3" x1="8.89" y1="224.43" x2="7.52" y2="220.67"/>
		<line class="st3" x1="13" y1="222.52" x2="11" y2="219.05"/>
	</g>
	<g>
		
			<rect x="65.86" y="165.86" transform="matrix(0.7071 -0.7071 0.7071 0.7071 -103.8478 109.2893)" class="st3" width="28.28" height="28.28"/>
		<path class="st3" d="M80,200l14.14-14.14C90.52,182.24,85.52,180,80,180s-10.52,2.24-14.14,5.86L80,200z"/>
		<path class="st3" d="M91.31,188.69c-2.9-2.9-6.9-4.69-11.31-4.69s-8.42,1.79-11.31,4.69L80,200L91.31,188.69z"/>
		<path class="st3" d="M88.49,191.51C86.31,189.34,83.31,188,80,188s-6.31,1.34-8.49,3.51L80,200L88.49,191.51z"/>
		<path class="st0" d="M88.49,191.51C86.31,189.34,83.31,188,80,188s-6.31,1.34-8.49,3.51L80,200L88.49,191.51z"/>
		<line class="st3" x1="80" y1="172" x2="80" y2="178"/>
		<line class="st3" x1="75.49" y1="174.4" x2="76.18" y2="178.33"/>
		<line class="st3" x1="71.11" y1="175.57" x2="72.48" y2="179.33"/>
		<line class="st3" x1="67" y1="177.48" x2="69" y2="180.95"/>
	</g>
	<g>
		
			<rect x="85.86" y="185.86" transform="matrix(0.7071 -0.7071 0.7071 0.7071 -112.132 129.2893)" class="st3" width="28.28" height="28.28"/>
	</g>
	<g>
		
			<rect x="45.86" y="185.86" transform="matrix(0.7071 -0.7071 0.7071 0.7071 -123.8478 101.0051)" class="st3" width="28.28" height="28.28"/>
		<path class="st3" d="M40,200l14.14,14.14C57.76,210.52,60,205.52,60,200s-2.24-10.52-5.86-14.14L40,200z"/>
		<path class="st3" d="M51.31,211.31c2.9-2.9,4.69-6.9,4.69-11.31s-1.79-8.42-4.69-11.31L40,200L51.31,211.31z"/>
		<path class="st3" d="M48.49,208.49c2.17-2.17,3.51-5.17,3.51-8.49s-1.34-6.31-3.51-8.49L40,200L48.49,208.49z"/>
		<path class="st0" d="M48.49,208.49c2.17-2.17,3.51-5.17,3.51-8.49s-1.34-6.31-3.51-8.49L40,200L48.49,208.49z"/>
		<line class="st3" x1="68" y1="200" x2="62" y2="200"/>
		<line class="st3" x1="65.61" y1="195.49" x2="61.67" y2="196.18"/>
		<line class="st3" x1="64.43" y1="191.11" x2="60.67" y2="192.48"/>
		<line class="st3" x1="62.52" y1="187" x2="59.05" y2="189"/>
		<line class="st3" x1="65.61" y1="204.51" x2="61.67" y2="203.82"/>
		<line class="st3" x1="64.43" y1="208.89" x2="60.67" y2="207.52"/>
		<line class="st3" x1="62.52" y1="213" x2="59.05" y2="211"/>
	</g>
	<g>
		
			<rect x="65.86" y="205.86" transform="matrix(0.7071 -0.7071 0.7071 0.7071 -132.132 121.0051)" class="st3" width="28.28" height="28.28"/>
		<path class="st3" d="M80,200l-14.14,14.14C69.48,217.76,74.48,220,80,220s10.52-2.24,14.14-5.86L80,200z"/>
		<path class="st3" d="M68.69,211.31c2.9,2.9,6.9,4.69,11.31,4.69s8.42-1.79,11.31-4.69L80,200L68.69,211.31z"/>
		<path class="st3" d="M71.51,208.49c2.17,2.17,5.17,3.51,8.49,3.51s6.31-1.34,8.49-3.51L80,200L71.51,208.49z"/>
		<path class="st0" d="M71.51,208.49c2.17,2.17,5.17,3.51,8.49,3.51s6.31-1.34,8.49-3.51L80,200L71.51,208.49z"/>
		<line class="st3" x1="80" y1="228" x2="80" y2="222"/>
		<line class="st3" x1="75.49" y1="225.6" x2="76.18" y2="221.67"/>
		<line class="st3" x1="71.11" y1="224.43" x2="72.48" y2="220.67"/>
		<line class="st3" x1="67" y1="222.52" x2="69" y2="219.05"/>
	</g>
	<g>
		
			<rect x="-34.14" y="65.86" transform="matrix(0.7071 -0.7071 0.7071 0.7071 -62.4264 9.2893)" class="st3" width="28.28" height="28.28"/>
		<path class="st3" d="M0,80l-14.14-14.14C-17.76,69.48-20,74.48-20,80s2.24,10.52,5.86,14.14L0,80z"/>
		<path class="st3" d="M-11.31,68.69C-14.21,71.58-16,75.58-16,80s1.79,8.42,4.69,11.31L0,80L-11.31,68.69z"/>
		<path class="st3" d="M-8.49,71.51C-10.66,73.69-12,76.69-12,80s1.34,6.31,3.51,8.49L0,80L-8.49,71.51z"/>
	</g>
	<g>
		
			<rect x="25.86" y="45.86" transform="matrix(0.7071 -0.7071 0.7071 0.7071 -30.7107 45.8579)" class="st3" width="28.28" height="28.28"/>
		<path class="st3" d="M40,80l14.14-14.14C50.52,62.24,45.52,60,40,60s-10.52,2.24-14.14,5.86L40,80z"/>
		<path class="st3" d="M51.31,68.69C48.42,65.79,44.42,64,40,64s-8.42,1.79-11.31,4.69L40,80L51.31,68.69z"/>
		<path class="st3" d="M48.49,71.51C46.31,69.34,43.31,68,40,68s-6.31,1.34-8.49,3.51L40,80L48.49,71.51z"/>
		<path class="st0" d="M48.49,71.51C46.31,69.34,43.31,68,40,68s-6.31,1.34-8.49,3.51L40,80L48.49,71.51z"/>
		<line class="st3" x1="40" y1="52" x2="40" y2="58"/>
		<line class="st3" x1="35.49" y1="54.39" x2="36.18" y2="58.33"/>
		<line class="st3" x1="31.11" y1="55.57" x2="32.48" y2="59.33"/>
		<line class="st3" x1="27" y1="57.48" x2="29" y2="60.95"/>
		<line class="st3" x1="44.51" y1="54.39" x2="43.82" y2="58.33"/>
		<line class="st3" x1="48.89" y1="55.57" x2="47.52" y2="59.33"/>
		<line class="st3" x1="53" y1="57.48" x2="51" y2="60.95"/>
	</g>
	<g>
		
			<rect x="45.86" y="65.86" transform="matrix(0.7071 -0.7071 0.7071 0.7071 -38.9949 65.8579)" class="st3" width="28.28" height="28.28"/>
		<path class="st3" d="M80,80L65.86,65.86C62.24,69.48,60,74.48,60,80s2.24,10.52,5.86,14.14L80,80z"/>
		<path class="st3" d="M68.69,68.69C65.79,71.58,64,75.58,64,80s1.79,8.42,4.69,11.31L80,80L68.69,68.69z"/>
		<path class="st3" d="M71.51,71.51C69.34,73.69,68,76.69,68,80s1.34,6.31,3.51,8.49L80,80L71.51,71.51z"/>
		<path class="st0" d="M71.51,71.51C69.34,73.69,68,76.69,68,80s1.34,6.31,3.51,8.49L80,80L71.51,71.51z"/>
		<line class="st3" x1="52" y1="80" x2="58" y2="80"/>
		<line class="st3" x1="54.39" y1="84.51" x2="58.33" y2="83.82"/>
		<line class="st3" x1="55.57" y1="88.89" x2="59.33" y2="87.52"/>
		<line class="st3" x1="57.48" y1="93" x2="60.95" y2="91"/>
		<line class="st3" x1="54.39" y1="75.49" x2="58.33" y2="76.18"/>
		<line class="st3" x1="55.57" y1="71.11" x2="59.33" y2="72.48"/>
		<line class="st3" x1="57.48" y1="67" x2="60.95" y2="69"/>
	</g>
	<g>
		
			<rect x="5.86" y="65.86" transform="matrix(0.7071 -0.7071 0.7071 0.7071 -50.7107 37.5736)" class="st3" width="28.28" height="28.28"/>
		<path class="st3" d="M0,80l14.14,14.14C17.76,90.52,20,85.52,20,80s-2.24-10.52-5.86-14.14L0,80z"/>
		<path class="st3" d="M11.31,91.31C14.21,88.42,16,84.42,16,80s-1.79-8.42-4.69-11.31L0,80L11.31,91.31z"/>
		<path class="st3" d="M8.49,88.49C10.66,86.31,12,83.31,12,80s-1.34-6.31-3.51-8.49L0,80L8.49,88.49z"/>
		<path class="st0" d="M8.49,88.49C10.66,86.31,12,83.31,12,80s-1.34-6.31-3.51-8.49L0,80L8.49,88.49z"/>
		<line class="st3" x1="28" y1="80" x2="22" y2="80"/>
		<line class="st3" x1="25.61" y1="75.49" x2="21.67" y2="76.18"/>
		<line class="st3" x1="24.43" y1="71.11" x2="20.67" y2="72.48"/>
		<line class="st3" x1="22.52" y1="67" x2="19.05" y2="69"/>
		<line class="st3" x1="25.61" y1="84.51" x2="21.67" y2="83.82"/>
		<line class="st3" x1="24.43" y1="88.89" x2="20.67" y2="87.52"/>
		<line class="st3" x1="22.52" y1="93" x2="19.05" y2="91"/>
	</g>
	<g>
		
			<rect x="25.86" y="85.86" transform="matrix(0.7071 -0.7071 0.7071 0.7071 -58.9949 57.5736)" class="st3" width="28.28" height="28.28"/>
		<path class="st3" d="M40,80L25.86,94.14C29.48,97.76,34.48,100,40,100s10.52-2.24,14.14-5.86L40,80z"/>
		<path class="st3" d="M28.69,91.31C31.58,94.21,35.58,96,40,96s8.42-1.79,11.31-4.69L40,80L28.69,91.31z"/>
		<path class="st3" d="M31.51,88.49C33.69,90.66,36.69,92,40,92s6.31-1.34,8.49-3.51L40,80L31.51,88.49z"/>
		<path class="st0" d="M31.51,88.49C33.69,90.66,36.69,92,40,92s6.31-1.34,8.49-3.51L40,80L31.51,88.49z"/>
		<line class="st3" x1="40" y1="108" x2="40" y2="102"/>
		<line class="st3" x1="44.51" y1="105.61" x2="43.82" y2="101.67"/>
		<line class="st3" x1="48.89" y1="104.43" x2="47.52" y2="100.67"/>
		<line class="st3" x1="53" y1="102.52" x2="51" y2="99.05"/>
		<line class="st3" x1="35.49" y1="105.61" x2="36.18" y2="101.67"/>
		<line class="st3" x1="31.11" y1="104.43" x2="32.48" y2="100.67"/>
		<line class="st3" x1="27" y1="102.52" x2="29" y2="99.05"/>
	</g>
	<g>
		
			<rect x="85.86" y="65.86" transform="matrix(0.7071 -0.7071 0.7071 0.7071 -27.2792 94.1421)" class="st3" width="28.28" height="28.28"/>
		<path class="st3" d="M80,80l14.14,14.14C97.76,90.52,100,85.52,100,80s-2.24-10.52-5.86-14.14L80,80z"/>
		<path class="st3" d="M91.31,91.31C94.21,88.42,96,84.42,96,80s-1.79-8.42-4.69-11.31L80,80L91.31,91.31z"/>
		<path class="st3" d="M88.49,88.49C90.66,86.31,92,83.31,92,80s-1.34-6.31-3.51-8.49L80,80L88.49,88.49z"/>
	</g>
	<g>
		
			<rect x="5.86" y="25.86" transform="matrix(0.7071 -0.7071 0.7071 0.7071 -22.4264 25.8579)" class="st3" width="28.28" height="28.28"/>
		<path class="st3" d="M40,40L25.86,25.86C22.24,29.48,20,34.48,20,40s2.24,10.52,5.86,14.14L40,40z"/>
		<path class="st3" d="M28.69,28.69C25.79,31.58,24,35.58,24,40s1.79,8.42,4.69,11.31L40,40L28.69,28.69z"/>
		<path class="st3" d="M31.51,31.51C29.34,33.69,28,36.69,28,40s1.34,6.31,3.51,8.49L40,40L31.51,31.51z"/>
		<path class="st0" d="M31.51,31.51C29.34,33.69,28,36.69,28,40s1.34,6.31,3.51,8.49L40,40L31.51,31.51z"/>
		<line class="st3" x1="12" y1="40" x2="18" y2="40"/>
		<line class="st3" x1="14.39" y1="44.51" x2="18.33" y2="43.82"/>
		<line class="st3" x1="15.57" y1="48.89" x2="19.33" y2="47.52"/>
		<line class="st3" x1="17.48" y1="53" x2="20.95" y2="51"/>
		<line class="st3" x1="14.39" y1="35.49" x2="18.33" y2="36.18"/>
		<line class="st3" x1="15.57" y1="31.11" x2="19.33" y2="32.48"/>
		<line class="st3" x1="17.48" y1="27" x2="20.95" y2="29"/>
	</g>
	<g>
		
			<rect x="-34.14" y="25.86" transform="matrix(0.7071 -0.7071 0.7071 0.7071 -34.1421 -2.4264)" class="st3" width="28.28" height="28.28"/>
	</g>
	<g>
		
			<rect x="-14.14" y="45.86" transform="matrix(0.7071 -0.7071 0.7071 0.7071 -42.4264 17.5736)" class="st3" width="28.28" height="28.28"/>
		<path class="st3" d="M0,40l-14.14,14.14C-10.52,57.76-5.52,60,0,60s10.52-2.24,14.14-5.86L0,40z"/>
		<path class="st3" d="M-11.31,51.31C-8.42,54.21-4.42,56,0,56s8.42-1.79,11.31-4.69L0,40L-11.31,51.31z"/>
		<path class="st3" d="M-8.49,48.49C-6.31,50.66-3.31,52,0,52s6.31-1.34,8.49-3.51L0,40L-8.49,48.49z"/>
		<path class="st0" d="M-8.49,48.49C-6.31,50.66-3.31,52,0,52s6.31-1.34,8.49-3.51L0,40L-8.49,48.49z"/>
		<line class="st3" x1="0" y1="68" x2="0" y2="62"/>
		<line class="st3" x1="4.51" y1="65.61" x2="3.82" y2="61.67"/>
		<line class="st3" x1="8.89" y1="64.43" x2="7.52" y2="60.67"/>
		<line class="st3" x1="13" y1="62.52" x2="11" y2="59.05"/>
	</g>
	<g>
		
			<rect x="85.86" y="25.86" transform="matrix(0.7071 -0.7071 0.7071 0.7071 1.0051 82.4264)" class="st3" width="28.28" height="28.28"/>
	</g>
	<g>
		
			<rect x="45.86" y="25.86" transform="matrix(0.7071 -0.7071 0.7071 0.7071 -10.7107 54.1421)" class="st3" width="28.28" height="28.28"/>
		<path class="st3" d="M40,40l14.14,14.14C57.76,50.52,60,45.52,60,40s-2.24-10.52-5.86-14.14L40,40z"/>
		<path class="st3" d="M51.31,51.31C54.21,48.42,56,44.42,56,40s-1.79-8.42-4.69-11.31L40,40L51.31,51.31z"/>
		<path class="st3" d="M48.49,48.49C50.66,46.31,52,43.31,52,40s-1.34-6.31-3.51-8.49L40,40L48.49,48.49z"/>
		<path class="st0" d="M48.49,48.49C50.66,46.31,52,43.31,52,40s-1.34-6.31-3.51-8.49L40,40L48.49,48.49z"/>
		<line class="st3" x1="68" y1="40" x2="62" y2="40"/>
		<line class="st3" x1="65.61" y1="35.49" x2="61.67" y2="36.18"/>
		<line class="st3" x1="64.43" y1="31.11" x2="60.67" y2="32.48"/>
		<line class="st3" x1="62.52" y1="27" x2="59.05" y2="29"/>
		<line class="st3" x1="65.61" y1="44.51" x2="61.67" y2="43.82"/>
		<line class="st3" x1="64.43" y1="48.89" x2="60.67" y2="47.52"/>
		<line class="st3" x1="62.52" y1="53" x2="59.05" y2="51"/>
	</g>
	<g>
		
			<rect x="65.86" y="45.86" transform="matrix(0.7071 -0.7071 0.7071 0.7071 -18.9949 74.1421)" class="st3" width="28.28" height="28.28"/>
		<path class="st3" d="M80,40L65.86,54.14C69.48,57.76,74.48,60,80,60s10.52-2.24,14.14-5.86L80,40z"/>
		<path class="st3" d="M68.69,51.31C71.58,54.21,75.58,56,80,56s8.42-1.79,11.31-4.69L80,40L68.69,51.31z"/>
		<path class="st3" d="M71.51,48.49C73.69,50.66,76.69,52,80,52s6.31-1.34,8.49-3.51L80,40L71.51,48.49z"/>
		<path class="st0" d="M71.51,48.49C73.69,50.66,76.69,52,80,52s6.31-1.34,8.49-3.51L80,40L71.51,48.49z"/>
		<line class="st3" x1="80" y1="68" x2="80" y2="62"/>
		<line class="st3" x1="75.49" y1="65.61" x2="76.18" y2="61.67"/>
		<line class="st3" x1="71.11" y1="64.43" x2="72.48" y2="60.67"/>
		<line class="st3" x1="67" y1="62.52" x2="69" y2="59.05"/>
	</g>
</g>
</svg>
