<?xml version="1.0" encoding="utf-8"?>
<!-- Generator: Adobe Illustrator 26.5.0, SVG Export Plug-In . SVG Version: 6.00 Build 0)  -->
<svg version="1.1" xmlns="http://www.w3.org/2000/svg" xmlns:xlink="http://www.w3.org/1999/xlink" x="0px" y="0px"
	 viewBox="0 0 40 70" style="enable-background:new 0 0 40 70;" xml:space="preserve">
<style type="text/css">
	.st0{fill:#000872;}
	.st1{fill:#FFFFFF;}
	.st2{opacity:0.07;fill:#000872;}
	.st3{fill:none;stroke:#000872;stroke-width:2;stroke-miterlimit:10;}
	.st4{fill:#B2B2B2;}
	.st5{fill:none;stroke:#DDDDDD;stroke-miterlimit:10;}
	.st6{clip-path:url(#SVGID_00000095331021211855064740000007719221232071940236_);}
	.st7{fill:none;stroke:#FFFFFF;stroke-width:2;stroke-miterlimit:10;}
	.st8{fill:none;stroke:#000872;stroke-width:2;stroke-miterlimit:10;stroke-dasharray:2.0701,2.0701;}
	.st9{clip-path:url(#SVGID_00000052796033645748092500000018305696750648426148_);}
	.st10{clip-path:url(#SVGID_00000078735512633801193400000010659230624714083237_);}
	.st11{fill:none;stroke:#000872;stroke-width:2;stroke-miterlimit:10;stroke-dasharray:1.8552,1.8552;}
	.st12{fill:none;stroke:#000872;stroke-width:2;stroke-miterlimit:10;stroke-dasharray:1.8551,1.8551;}
	.st13{clip-path:url(#SVGID_00000106852071109726037510000002280647552184611731_);}
	.st14{clip-path:url(#SVGID_00000092436555931418617760000003970244855124341173_);}
	.st15{fill:none;}
	.st16{fill:none;stroke:#000872;stroke-width:2;stroke-miterlimit:10;stroke-dasharray:2.0262,2.0262;}
</style>
<g id="Guides">
</g>
<g id="BG">
</g>
<g id="Content">
	<g>
	</g>
	<g>
		<path class="st3" d="M-20,50c11.05,0,20,8.95,20,20"/>
		<path class="st3" d="M0,70c0-11.05,8.95-20,20-20"/>
		<path class="st3" d="M20,46c-8.35,0-15.7,4.27-20,10.74C-4.3,50.27-11.65,46-20,46"/>
		<g>
			<g>
				<path class="st3" d="M18.36,42.05c-0.33,0.02-0.67,0.04-1,0.08"/>
				<path class="st8" d="M15.31,42.39c-5.25,0.89-10,3.24-13.83,6.62"/>
				<path class="st3" d="M0.71,49.71c-0.24,0.23-0.48,0.46-0.71,0.7c-0.23-0.24-0.47-0.47-0.71-0.7"/>
			</g>
		</g>
		<path class="st3" d="M20,50c11.05,0,20,8.95,20,20"/>
		<path class="st3" d="M40,70c0-11.05,8.95-20,20-20"/>
		<path class="st3" d="M60,46c-8.35,0-15.7,4.27-20,10.74C35.7,50.27,28.35,46,20,46"/>
		<g>
			<g>
				<path class="st3" d="M40.71,49.71c-0.24,0.23-0.48,0.46-0.71,0.7c-0.23-0.24-0.47-0.47-0.71-0.7"/>
				<path class="st8" d="M37.74,48.34c-3.94-3.23-8.77-5.41-14.06-6.1"/>
				<path class="st3" d="M22.64,42.12c-0.33-0.03-0.66-0.06-1-0.08"/>
			</g>
		</g>
		<path class="st3" d="M0,30c11.05,0,20,8.95,20,20"/>
		<path class="st3" d="M20,50c0-11.05,8.95-20,20-20"/>
		<path class="st3" d="M40,26c-8.35,0-15.7,4.27-20,10.74C15.7,30.27,8.35,26,0,26"/>
		<g>
			<g>
				<path class="st3" d="M38.36,22.05c-0.33,0.02-0.67,0.04-1,0.08"/>
				<path class="st8" d="M35.31,22.39c-5.25,0.89-10,3.24-13.83,6.62"/>
				<path class="st3" d="M20.71,29.71c-0.24,0.23-0.48,0.46-0.71,0.7c-0.23-0.24-0.47-0.47-0.71-0.7"/>
				<path class="st8" d="M17.74,28.34c-3.94-3.23-8.77-5.41-14.06-6.1"/>
				<path class="st3" d="M2.64,22.12c-0.33-0.03-0.66-0.06-1-0.08"/>
			</g>
		</g>
		<path class="st3" d="M-20,10c11.05,0,20,8.95,20,20"/>
		<path class="st3" d="M0,30c0-11.05,8.95-20,20-20"/>
		<path class="st3" d="M20,6C11.65,6,4.3,10.27,0,16.74C-4.3,10.27-11.65,6-20,6"/>
		<g>
			<g>
				<path class="st3" d="M-0.71,9.71c0.24,0.23,0.48,0.46,0.71,0.7c0.23-0.24,0.47-0.47,0.71-0.7"/>
				<path class="st16" d="M2.23,8.37C6.67,4.72,12.25,2.4,18.36,2.05h3.29c6.47,0.37,12.34,2.95,16.9,6.98"/>
				<path class="st3" d="M39.29,9.71c0.24,0.23,0.48,0.46,0.71,0.7c0.23-0.24,0.47-0.47,0.71-0.7"/>
			</g>
		</g>
		<path class="st3" d="M20,10c11.05,0,20,8.95,20,20"/>
		<path class="st3" d="M40,30c0-11.05,8.95-20,20-20"/>
		<path class="st3" d="M60,6c-8.35,0-15.7,4.27-20,10.74C35.7,10.27,28.35,6,20,6"/>
	</g>
</g>
</svg>
