<?xml version="1.0" encoding="utf-8"?>
<!-- Generator: Adobe Illustrator 26.5.0, SVG Export Plug-In . SVG Version: 6.00 Build 0)  -->
<svg version="1.1" xmlns="http://www.w3.org/2000/svg" xmlns:xlink="http://www.w3.org/1999/xlink" x="0px" y="0px"
	 viewBox="0 0 40 60" style="enable-background:new 0 0 40 60;" xml:space="preserve">
<style type="text/css">
	.st0{fill:#000872;}
	.st1{fill:#FFFFFF;}
	.st2{opacity:0.07;fill:#000872;}
	.st3{fill:none;stroke:#000872;stroke-width:2;stroke-miterlimit:10;}
	.st4{fill:#B2B2B2;}
	.st5{fill:none;stroke:#DDDDDD;stroke-miterlimit:10;}
	.st6{clip-path:url(#SVGID_00000139281336952928043850000014350921423094901411_);}
	.st7{fill:none;stroke:#FFFFFF;stroke-width:2;stroke-miterlimit:10;}
	.st8{fill:none;stroke:#000872;stroke-width:2;stroke-miterlimit:10;stroke-dasharray:2.0701,2.0701;}
	.st9{clip-path:url(#SVGID_00000068642863488698723180000000077213118791936172_);}
	.st10{clip-path:url(#SVGID_00000179645611079569627480000014312852237932906652_);}
	.st11{fill:none;stroke:#000872;stroke-width:2;stroke-miterlimit:10;stroke-dasharray:1.8552,1.8552;}
	.st12{fill:none;stroke:#000872;stroke-width:2;stroke-miterlimit:10;stroke-dasharray:1.8551,1.8551;}
	.st13{clip-path:url(#SVGID_00000089539502770971382850000006657903185439792010_);}
	.st14{clip-path:url(#SVGID_00000082353104832851679460000002690255967876019092_);}
	.st15{fill:none;}
	.st16{fill:none;stroke:#000872;stroke-width:2;stroke-miterlimit:10;stroke-dasharray:2.0262,2.0262;}
	.st17{fill:none;stroke:#000872;stroke-width:2;stroke-linecap:square;stroke-miterlimit:10;}
</style>
<g id="Guides">
</g>
<g id="BG">
</g>
<g id="Content">
	<g>
	</g>
	<g>
		
			<rect x="-7.07" y="42.93" transform="matrix(0.7071 -0.7071 0.7071 0.7071 -35.3553 14.6447)" class="st7" width="14.14" height="14.14"/>
		<line class="st7" x1="0" y1="46" x2="0" y2="54"/>
		<line class="st7" x1="4" y1="50" x2="-4" y2="50"/>
		
			<rect x="12.93" y="42.93" transform="matrix(0.7071 -0.7071 0.7071 0.7071 -29.4975 28.7868)" class="st7" width="14.14" height="14.14"/>
		<line class="st7" x1="20" y1="46" x2="20" y2="54"/>
		<line class="st7" x1="24" y1="50" x2="16" y2="50"/>
		
			<rect x="32.93" y="42.93" transform="matrix(0.7071 -0.7071 0.7071 0.7071 -23.6396 42.9289)" class="st7" width="14.14" height="14.14"/>
		<line class="st7" x1="40" y1="46" x2="40" y2="54"/>
		<line class="st7" x1="44" y1="50" x2="36" y2="50"/>
		
			<rect x="-17.07" y="32.93" transform="matrix(0.7071 -0.7071 0.7071 0.7071 -31.2132 4.6447)" class="st7" width="14.14" height="14.14"/>
		
			<rect x="2.93" y="32.93" transform="matrix(0.7071 -0.7071 0.7071 0.7071 -25.3553 18.7868)" class="st7" width="14.14" height="14.14"/>
		<line class="st7" x1="7.17" y1="37.17" x2="12.83" y2="42.83"/>
		<line class="st7" x1="12.83" y1="37.17" x2="7.17" y2="42.83"/>
		
			<rect x="22.93" y="32.93" transform="matrix(0.7071 -0.7071 0.7071 0.7071 -19.4975 32.9289)" class="st7" width="14.14" height="14.14"/>
		<line class="st7" x1="27.17" y1="37.17" x2="32.83" y2="42.83"/>
		<line class="st7" x1="32.83" y1="37.17" x2="27.17" y2="42.83"/>
		
			<rect x="42.93" y="32.93" transform="matrix(0.7071 -0.7071 0.7071 0.7071 -13.6396 47.0711)" class="st7" width="14.14" height="14.14"/>
		
			<rect x="-7.07" y="22.93" transform="matrix(0.7071 -0.7071 0.7071 0.7071 -21.2132 8.7868)" class="st7" width="14.14" height="14.14"/>
		<line class="st7" x1="0" y1="26" x2="0" y2="34"/>
		<line class="st7" x1="4" y1="30" x2="-4" y2="30"/>
		
			<rect x="12.93" y="22.93" transform="matrix(0.7071 -0.7071 0.7071 0.7071 -15.3553 22.9289)" class="st7" width="14.14" height="14.14"/>
		<line class="st7" x1="20" y1="26" x2="20" y2="34"/>
		<line class="st7" x1="24" y1="30" x2="16" y2="30"/>
		
			<rect x="32.93" y="22.93" transform="matrix(0.7071 -0.7071 0.7071 0.7071 -9.4975 37.0711)" class="st7" width="14.14" height="14.14"/>
		<line class="st7" x1="40" y1="26" x2="40" y2="34"/>
		<line class="st7" x1="44" y1="30" x2="36" y2="30"/>
		
			<rect x="-17.07" y="12.93" transform="matrix(0.7071 -0.7071 0.7071 0.7071 -17.0711 -1.2132)" class="st7" width="14.14" height="14.14"/>
		
			<rect x="2.93" y="12.93" transform="matrix(0.7071 -0.7071 0.7071 0.7071 -11.2132 12.9289)" class="st7" width="14.14" height="14.14"/>
		<line class="st7" x1="7.17" y1="17.17" x2="12.83" y2="22.83"/>
		<line class="st7" x1="12.83" y1="17.17" x2="7.17" y2="22.83"/>
		
			<rect x="22.93" y="12.93" transform="matrix(0.7071 -0.7071 0.7071 0.7071 -5.3553 27.0711)" class="st7" width="14.14" height="14.14"/>
		<line class="st7" x1="27.17" y1="17.17" x2="32.83" y2="22.83"/>
		<line class="st7" x1="32.83" y1="17.17" x2="27.17" y2="22.83"/>
		
			<rect x="42.93" y="12.93" transform="matrix(0.7071 -0.7071 0.7071 0.7071 0.5025 41.2132)" class="st7" width="14.14" height="14.14"/>
		<line class="st7" x1="40" y1="7" x2="40" y2="11"/>
		<line class="st7" x1="20" y1="7" x2="20" y2="11"/>
		<line class="st7" x1="0" y1="7" x2="0" y2="11"/>
	</g>
</g>
</svg>
