<?xml version="1.0" encoding="utf-8"?>
<!-- Generator: Adobe Illustrator 26.5.0, SVG Export Plug-In . SVG Version: 6.00 Build 0)  -->
<svg version="1.1" xmlns="http://www.w3.org/2000/svg" xmlns:xlink="http://www.w3.org/1999/xlink" x="0px" y="0px"
	 viewBox="0 0 100 60" style="enable-background:new 0 0 100 60;" xml:space="preserve">
<style type="text/css">
	.st0{fill:#000872;}
	.st1{fill:#FFFFFF;}
	.st2{opacity:0.07;fill:#000872;}
	.st3{fill:none;stroke:#000872;stroke-width:2;stroke-miterlimit:10;}
	.st4{fill:#B2B2B2;}
	.st5{fill:none;stroke:#DDDDDD;stroke-miterlimit:10;}
	.st6{clip-path:url(#SVGID_00000091706937529696092160000007094501172538949033_);}
	.st7{fill:none;stroke:#FFFFFF;stroke-width:2;stroke-miterlimit:10;}
	.st8{fill:none;stroke:#000872;stroke-width:2;stroke-miterlimit:10;stroke-dasharray:2.0701,2.0701;}
	.st9{clip-path:url(#SVGID_00000095321043824639307820000004838184617611517628_);}
	.st10{clip-path:url(#SVGID_00000073721185239692733860000003242574444582496405_);}
	.st11{fill:none;stroke:#000872;stroke-width:2;stroke-miterlimit:10;stroke-dasharray:1.8552,1.8552;}
	.st12{fill:none;stroke:#000872;stroke-width:2;stroke-miterlimit:10;stroke-dasharray:1.8551,1.8551;}
	.st13{clip-path:url(#SVGID_00000048498104024989931170000012270991771879374005_);}
	.st14{clip-path:url(#SVGID_00000052068899846572895610000011489167561009616559_);}
	.st15{fill:none;}
	.st16{fill:none;stroke:#000872;stroke-width:2;stroke-miterlimit:10;stroke-dasharray:2.0262,2.0262;}
</style>
<g id="Guides">
</g>
<g id="BG">
</g>
<g id="Content">
	<g>
		<g>
			<g>
				
					<rect x="60.86" y="15.86" transform="matrix(0.7071 -0.7071 0.7071 0.7071 0.7538 61.8198)" class="st3" width="28.28" height="28.28"/>
				<path class="st3" d="M95,30.15c-11.05,0-20-8.95-20-20"/>
				<path class="st3" d="M75,10.15c0,11.05-8.95,20-20,20"/>
				<path class="st3" d="M58.85,33.85c6.73-1.09,12.53-4.97,16.15-10.43c3.63,5.46,9.42,9.34,16.15,10.43"/>
				<g>
					<g>
						<path class="st3" d="M62.21,37.21c0.32-0.09,0.64-0.18,0.96-0.27"/>
						<path class="st11" d="M64.93,36.34c3.22-1.22,6.15-3.02,8.68-5.27"/>
						<path class="st3" d="M74.29,30.44c0.24-0.23,0.48-0.46,0.71-0.7c0.23,0.24,0.47,0.47,0.71,0.7"/>
						<path class="st12" d="M77.1,31.68c2.59,2.16,5.59,3.86,8.85,4.98"/>
						<path class="st3" d="M86.83,36.94c0.32,0.1,0.64,0.19,0.96,0.27"/>
					</g>
				</g>
			</g>
		</g>
		<g>
			<g>
				
					<rect x="10.86" y="15.86" transform="matrix(0.7071 -0.7071 0.7071 0.7071 -13.8909 26.4645)" class="st3" width="28.28" height="28.28"/>
				<path class="st3" d="M5,29.85c11.05,0,20,8.95,20,20"/>
				<path class="st3" d="M25,49.85c0-11.05,8.95-20,20-20"/>
				<path class="st3" d="M41.15,26.15C34.42,27.24,28.63,31.13,25,36.58c-3.63-5.46-9.42-9.34-16.15-10.43"/>
				<g>
					<g>
						<path class="st3" d="M37.79,22.79c-0.32,0.09-0.64,0.18-0.96,0.27"/>
						<path class="st11" d="M35.07,23.66c-3.22,1.22-6.15,3.02-8.68,5.27"/>
						<path class="st3" d="M25.71,29.56c-0.24,0.23-0.48,0.46-0.71,0.7c-0.23-0.24-0.47-0.47-0.71-0.7"/>
						<path class="st12" d="M22.9,28.32c-2.59-2.16-5.59-3.86-8.85-4.98"/>
						<path class="st3" d="M13.17,23.06c-0.32-0.1-0.64-0.19-0.96-0.27"/>
					</g>
				</g>
			</g>
		</g>
	</g>
</g>
</svg>
